<?xml version="1.0" standalone="no"?>
<svg xmlns:xlink="http://www.w3.org/1999/xlink" id="wave" style="transform:rotate(0deg); transition: 0.3s" viewBox="0 0 1440 490" version="1.1" xmlns="http://www.w3.org/2000/svg"><defs><linearGradient id="sw-gradient-0" x1="0" x2="0" y1="1" y2="0"><stop stop-color="rgba(8, 47, 73, 1)" offset="0%"/><stop stop-color="rgba(105, 179, 248, 1)" offset="100%"/></linearGradient></defs><path style="transform:translate(0, 0px); opacity:1" fill="url(#sw-gradient-0)" d="M0,343L40,294C80,245,160,147,240,138.8C320,131,400,212,480,253.2C560,294,640,294,720,277.7C800,261,880,229,960,236.8C1040,245,1120,294,1200,261.3C1280,229,1360,114,1440,98C1520,82,1600,163,1680,236.8C1760,310,1840,376,1920,383.8C2000,392,2080,343,2160,310.3C2240,278,2320,261,2400,220.5C2480,180,2560,114,2640,81.7C2720,49,2800,49,2880,49C2960,49,3040,49,3120,40.8C3200,33,3280,16,3360,49C3440,82,3520,163,3600,236.8C3680,310,3760,376,3840,392C3920,408,4000,376,4080,375.7C4160,376,4240,408,4320,392C4400,376,4480,310,4560,236.8C4640,163,4720,82,4800,49C4880,16,4960,33,5040,89.8C5120,147,5200,245,5280,236.8C5360,229,5440,114,5520,122.5C5600,131,5680,261,5720,326.7L5760,392L5760,490L5720,490C5680,490,5600,490,5520,490C5440,490,5360,490,5280,490C5200,490,5120,490,5040,490C4960,490,4880,490,4800,490C4720,490,4640,490,4560,490C4480,490,4400,490,4320,490C4240,490,4160,490,4080,490C4000,490,3920,490,3840,490C3760,490,3680,490,3600,490C3520,490,3440,490,3360,490C3280,490,3200,490,3120,490C3040,490,2960,490,2880,490C2800,490,2720,490,2640,490C2560,490,2480,490,2400,490C2320,490,2240,490,2160,490C2080,490,2000,490,1920,490C1840,490,1760,490,1680,490C1600,490,1520,490,1440,490C1360,490,1280,490,1200,490C1120,490,1040,490,960,490C880,490,800,490,720,490C640,490,560,490,480,490C400,490,320,490,240,490C160,490,80,490,40,490L0,490Z"/></svg>